# 3ds Max Wavefront OBJ Exporter v0.97b - (c)2007 guruware
# File Created: 02.10.2018 14:45:16

mtllib dagger.mtl

#
# object P_ShioriDagger
#

v  0.0000 -18.7014 0.5306
v  0.0000 10.2048 0.5306
v  -1.0401 10.2048 0.5306
v  -0.9409 -18.7014 0.5306
v  -2.5106 10.2048 -0.0000
v  -2.2132 -18.7014 0.0000
v  -1.0401 10.2048 -0.5306
v  -0.9409 -18.7014 -0.5306
v  -2.8940 -20.4738 0.0000
v  -1.3387 -20.4738 0.5306
v  0.0000 -18.7014 -0.5306
v  0.0000 -20.4738 -0.5306
v  -1.3387 -20.4738 -0.5306
v  -1.6703 -25.9664 0.0000
v  -0.7727 -25.9664 0.2653
v  0.0000 -25.9664 -0.2653
v  -0.7727 -25.9664 -0.2653
v  0.0000 10.2048 -0.5306
v  0.0000 -20.4738 0.5306
v  0.0000 -25.9664 0.2653
v  0.9409 -18.7014 0.5306
v  1.0401 10.2048 0.5306
v  2.5106 10.2048 -0.0000
v  2.2132 -18.7014 0.0000
v  0.9409 -18.7014 -0.5306
v  1.0401 10.2048 -0.5306
v  1.3387 -20.4738 0.5306
v  2.8940 -20.4738 0.0000
v  1.3387 -20.4738 -0.5306
v  0.7727 -25.9664 0.2653
v  1.6703 -25.9664 0.0000
v  0.7727 -25.9664 -0.2653
v  0.0000 -29.7126 0.0000
v  0.8682 10.2048 0.5306
v  0.8682 11.3404 0.5306
v  -0.8682 11.3404 0.5306
v  -0.8682 10.2048 0.5306
v  0.8682 11.3404 -0.5306
v  0.8682 10.2048 -0.5306
v  -0.8682 10.2048 -0.5306
v  -0.8682 11.3404 -0.5306
v  -2.6046 11.3404 0.5306
v  -2.6046 10.2048 0.5306
v  -2.6046 10.2048 -0.5306
v  -2.6046 11.3404 -0.5306
v  -0.5393 12.0602 0.4293
v  -0.5393 12.0602 -0.4293
v  -0.3197 22.4103 0.2545
v  -0.3197 22.4103 -0.2545
v  -5.2766 11.0967 0.2192
v  -5.2766 10.4485 0.2192
v  -5.2766 11.0967 -0.2192
v  -5.2766 10.4485 -0.2192
v  -6.7316 11.2564 0.2192
v  -6.7316 10.2887 0.2192
v  -6.7316 11.2564 -0.2192
v  -6.7316 10.2887 -0.2192
v  -8.0662 10.7726 -0.0000
v  -0.7559 23.3750 0.2545
v  -0.7559 23.3750 -0.2545
v  -0.3941 24.2470 0.2545
v  -0.3941 24.2470 -0.2545
v  0.5393 12.0602 -0.4293
v  0.3197 22.4103 -0.2545
v  0.3941 24.2470 -0.2545
v  0.7559 23.3750 -0.2545
v  0.3941 24.2470 0.2545
v  2.6046 11.3404 0.5306
v  2.6046 10.2048 0.5306
v  2.6046 10.2048 -0.5306
v  2.6046 11.3404 -0.5306
v  0.5393 12.0602 0.4293
v  0.3197 22.4103 0.2545
v  5.2766 10.4485 0.2192
v  5.2766 11.0967 0.2192
v  5.2766 11.0967 -0.2192
v  5.2766 10.4485 -0.2192
v  6.7316 10.2887 0.2192
v  6.7316 11.2564 0.2192
v  6.7316 11.2564 -0.2192
v  6.7316 10.2887 -0.2192
v  8.0662 10.7726 -0.0000
v  0.7559 23.3750 0.2545
# 83 vertices

vn 0.0000 0.0000 1.0000
vn -0.2728 -0.0009 0.9621
vn -0.3023 -0.0030 0.9532
vn -0.5259 -0.0019 0.8506
vn -0.5794 -0.0060 0.8150
vn -0.5774 -0.0021 -0.8165
vn -0.5239 -0.0054 -0.8518
vn -0.2739 -0.0027 -0.9618
vn -0.3035 -0.0010 -0.9528
vn -0.5318 0.1618 0.8312
vn 0.0000 -0.0000 -1.0000
vn -0.5318 0.1618 -0.8312
vn -0.4809 -0.1141 0.8693
vn 0.0000 -0.0821 -0.9966
vn -0.4809 -0.1141 -0.8693
vn 0.0000 -0.0821 0.9966
vn 0.3023 -0.0030 0.9532
vn 0.2728 -0.0009 0.9621
vn 0.5259 -0.0019 0.8506
vn 0.5794 -0.0060 0.8150
vn 0.5774 -0.0021 -0.8165
vn 0.3035 -0.0010 -0.9528
vn 0.2739 -0.0027 -0.9618
vn 0.5239 -0.0054 -0.8518
vn 0.5318 0.1618 0.8312
vn 0.5318 0.1618 -0.8312
vn 0.4809 -0.1141 0.8693
vn 0.4809 -0.1141 -0.8693
vn -0.4412 -0.1967 0.8756
vn 0.0000 -0.1199 -0.9928
vn -0.4412 -0.1967 -0.8756
vn 0.0000 -0.1199 0.9928
vn 0.4412 -0.1967 0.8756
vn 0.4412 -0.1967 -0.8756
vn 0.0000 1.0000 -0.0000
vn -0.9096 0.4156 -0.0000
vn -0.9998 0.0212 -0.0000
vn -0.1949 0.0000 0.9808
vn -0.0908 0.9959 -0.0000
vn -0.1949 -0.0000 -0.9808
vn -0.0908 -0.9959 0.0000
vn 0.1091 0.9940 -0.0000
vn 0.1091 -0.9940 0.0000
vn -0.2696 0.0000 0.9630
vn -0.3408 0.9401 -0.0000
vn -0.2696 -0.0000 -0.9630
vn -0.3408 -0.9401 0.0000
vn -0.9112 -0.4120 0.0000
vn -0.9236 0.3833 -0.0000
vn 0.0000 0.2333 -0.9724
vn 0.0000 0.0288 -0.9996
vn 0.0000 0.2333 0.9724
vn 0.9096 0.4156 -0.0000
vn 0.0000 0.0288 0.9996
vn 0.9998 0.0212 -0.0000
vn 0.1949 0.0000 0.9808
vn 0.0908 0.9959 -0.0000
vn 0.1949 -0.0000 -0.9808
vn 0.0908 -0.9959 0.0000
vn -0.1091 0.9940 -0.0000
vn -0.1091 -0.9940 0.0000
vn 0.2696 0.0000 0.9630
vn 0.3408 0.9401 -0.0000
vn 0.2696 -0.0000 -0.9630
vn 0.3408 -0.9401 0.0000
vn 0.9112 -0.4120 0.0000
vn 0.9236 0.3833 -0.0000
vn 0.0000 -1.0000 0.0000
# 68 vertex normals

vt 0.0987 0.6465 0.0000
vt 0.0987 0.9735 0.0000
vt 0.1105 0.9735 0.0000
vt 0.1095 0.6464 0.0000
vt 0.1300 0.9735 0.0000
vt 0.1273 0.6465 0.0000
vt 0.1338 0.6258 0.0000
vt 0.1137 0.6264 0.0000
vt 0.0987 0.6264 0.0000
vt 0.1188 0.5636 0.0000
vt 0.1074 0.5642 0.0000
vt 0.0987 0.5642 0.0000
vt 0.0987 0.5215 0.0000
vt 0.0833 0.4608 0.0000
vt 0.0825 0.4706 0.0000
vt 0.0677 0.4703 0.0000
vt 0.0673 0.4604 0.0000
vt 0.0816 0.4866 0.0000
vt 0.0818 0.4967 0.0000
vt 0.0672 0.4963 0.0000
vt 0.0678 0.4863 0.0000
vt 0.0528 0.4710 0.0000
vt 0.0511 0.4617 0.0000
vt 0.0528 0.4949 0.0000
vt 0.0535 0.4860 0.0000
vt 0.6445 0.1201 0.0000
vt 0.6399 0.1352 0.0000
vt 0.6339 0.1313 0.0000
vt 0.6373 0.1175 0.0000
vt 0.5404 0.1102 0.0000
vt 0.5411 0.1017 0.0000
vt 0.0300 0.4770 0.0000
vt 0.0286 0.4711 0.0000
vt 0.0304 0.4845 0.0000
vt 0.0297 0.4912 0.0000
vt 0.0495 0.5097 0.0000
vt 0.0280 0.4980 0.0000
vt 0.0179 0.4788 0.0000
vt 0.0150 0.4720 0.0000
vt 0.0185 0.4836 0.0000
vt 0.0172 0.4904 0.0000
vt 0.0147 0.4954 0.0000
vt 0.0064 0.4836 0.0000
vt 0.5304 0.1110 0.0000
vt 0.5313 0.1037 0.0000
vt 0.5213 0.1086 0.0000
vt 0.5235 0.1002 0.0000
vt 0.6389 0.1062 0.0000
vt 0.6464 0.1064 0.0000
vt 0.5421 0.0947 0.0000
vt 0.5243 0.0922 0.0000
vt 0.5329 0.0914 0.0000
vt 0.5154 0.0990 0.0000
vt 0.5162 0.0916 0.0000
vt 0.0973 0.4721 0.0000
vt 0.0995 0.4628 0.0000
vt 0.0962 0.4959 0.0000
vt 0.0959 0.4869 0.0000
vt 0.6403 0.0914 0.0000
vt 0.6400 0.0808 0.0000
vt 0.6459 0.0766 0.0000
vt 0.6479 0.0918 0.0000
vt 0.5432 0.0855 0.0000
vt 0.5439 0.0792 0.0000
vt 0.1215 0.4732 0.0000
vt 0.1198 0.4790 0.0000
vt 0.1190 0.4866 0.0000
vt 0.1195 0.4933 0.0000
vt 0.1208 0.5001 0.0000
vt 0.0988 0.5109 0.0000
vt 0.1350 0.4748 0.0000
vt 0.1319 0.4815 0.0000
vt 0.1310 0.4862 0.0000
vt 0.1320 0.4930 0.0000
vt 0.1342 0.4982 0.0000
vt 0.1431 0.4868 0.0000
vt 0.5336 0.0853 0.0000
vt 0.5362 0.0723 0.0000
vt 0.5257 0.0825 0.0000
vt 0.5270 0.0745 0.0000
vt 0.0659 0.5120 0.0000
vt 0.0823 0.5124 0.0000
# 82 texture coords

g P_ShioriDagger
usemtl wire_138008110
s 2
f 1/1/1 2/2/1 3/3/2 4/4/3 
f 5/5/4 6/6/5 4/4/3 3/3/2 
s 4
f 6/6/6 5/5/7 7/3/8 8/4/9 
s off
f 4/4/10 6/6/10 9/7/10 10/8/10 
f 11/1/11 12/9/11 13/8/11 8/4/11 
f 6/6/12 8/4/12 13/8/12 9/7/12 
f 10/8/13 9/7/13 14/10/13 15/11/13 
f 12/9/14 16/12/14 17/11/14 13/8/14 
f 13/8/15 17/11/15 14/10/15 9/7/15 
s 4
f 8/4/9 7/3/8 18/2/11 11/1/11 
s off
f 1/1/1 4/4/1 10/8/1 19/9/1 
f 19/9/16 10/8/16 15/11/16 20/12/16 
s 2
f 1/1/1 21/4/17 22/3/18 2/2/1 
f 23/5/19 22/3/18 21/4/17 24/6/20 
s 4
f 24/6/21 25/4/22 26/3/23 23/5/24 
s off
f 21/4/25 27/8/25 28/7/25 24/6/25 
f 11/1/11 25/4/11 29/8/11 12/9/11 
f 24/6/26 28/7/26 29/8/26 25/4/26 
f 27/8/27 30/11/27 31/10/27 28/7/27 
f 29/8/14 32/11/14 16/12/14 12/9/14 
f 29/8/28 28/7/28 31/10/28 32/11/28 
s 4
f 25/4/22 11/1/11 18/2/11 26/3/23 
s off
f 1/1/1 19/9/1 27/8/1 21/4/1 
f 27/8/16 19/9/16 20/12/16 30/11/16 
f 14/10/29 33/13/29 15/11/29 
f 16/12/30 33/13/30 17/11/30 
f 17/11/31 33/13/31 14/10/31 
f 15/11/32 33/13/32 20/12/32 
f 30/11/33 33/13/33 31/10/33 
f 32/11/30 33/13/30 16/12/30 
f 31/10/34 33/13/34 32/11/34 
f 20/12/32 33/13/32 30/11/32 
s 2
f 34/14/1 35/15/1 36/16/1 37/17/1 
s 4
f 38/18/11 39/19/11 40/20/11 41/21/11 
s 2
f 42/22/1 43/23/1 37/17/1 36/16/1 
s 4
f 44/24/11 45/25/11 41/21/11 40/20/11 
s 8
f 45/25/35 42/22/35 36/16/35 41/21/35 
s off
f 41/26/36 36/27/36 46/28/36 47/29/36 
f 47/29/37 46/28/37 48/30/37 49/31/37 
f 43/23/38 42/22/38 50/32/38 51/33/38 
f 42/22/39 45/25/39 52/34/39 50/32/39 
f 45/25/40 44/24/40 53/35/40 52/34/40 
f 44/24/41 43/36/41 51/37/41 53/35/41 
f 51/33/1 50/32/1 54/38/1 55/39/1 
f 50/32/42 52/34/42 56/40/42 54/38/42 
f 52/34/11 53/35/11 57/41/11 56/40/11 
f 53/35/43 51/37/43 55/42/43 57/41/43 
f 55/39/44 54/38/44 58/43/44 
f 54/38/45 56/40/45 58/43/45 
f 56/40/46 57/41/46 58/43/46 
f 57/41/47 55/42/47 58/43/47 
f 49/31/48 48/30/48 59/44/48 60/45/48 
f 60/45/49 59/44/49 61/46/49 62/47/49 
f 47/29/50 63/48/50 38/49/50 41/26/50 
f 49/31/51 64/50/51 63/48/51 47/29/51 
f 62/47/11 65/51/11 66/52/11 60/45/11 
f 61/53/35 67/54/35 65/51/35 62/47/35 
s 2
f 68/55/1 35/15/1 34/14/1 69/56/1 
s 4
f 70/57/11 39/19/11 38/18/11 71/58/11 
s 8
f 71/58/35 38/18/35 35/15/35 68/55/35 
s off
f 72/59/52 46/60/52 36/61/52 35/62/52 
f 38/49/53 63/48/53 72/59/53 35/62/53 
f 73/63/54 48/64/54 46/60/54 72/59/54 
f 63/48/55 64/50/55 73/63/55 72/59/55 
f 69/56/56 74/65/56 75/66/56 68/55/56 
f 68/55/57 75/66/57 76/67/57 71/58/57 
f 71/58/58 76/67/58 77/68/58 70/57/58 
f 70/57/59 77/68/59 74/69/59 69/70/59 
f 74/65/1 78/71/1 79/72/1 75/66/1 
f 75/66/60 79/72/60 80/73/60 76/67/60 
f 76/67/11 80/73/11 81/74/11 77/68/11 
f 77/68/61 81/74/61 78/75/61 74/69/61 
f 78/71/62 82/76/62 79/72/62 
f 79/72/63 82/76/63 80/73/63 
f 80/73/64 82/76/64 81/74/64 
f 81/74/65 82/76/65 78/75/65 
f 73/63/1 83/77/1 59/78/1 48/64/1 
f 64/50/66 66/52/66 83/77/66 73/63/66 
f 67/79/1 61/80/1 59/78/1 83/77/1 
f 66/52/67 65/51/67 67/79/67 83/77/67 
f 49/31/11 60/45/11 66/52/11 64/50/11 
f 44/24/68 40/20/68 37/81/68 43/36/68 
f 39/19/68 34/82/68 37/81/68 40/20/68 
f 70/57/68 69/70/68 34/82/68 39/19/68 
# 68 polygons - 16 triangles

