# 3ds Max Wavefront OBJ Exporter v0.97b - (c)2007 guruware
# File Created: 02.10.2018 14:44:39

mtllib swordB.mtl

#
# object P_ShioriSwordB
#

v  -159.3932 0.0000 165.7085
v  152.8369 0.0000 165.7085
v  152.8369 -0.0000 -146.5216
v  -159.3932 -0.0000 -146.5216
# 4 vertices

vn 0.0000 1.0000 -0.0000
# 1 vertex normals

vt 0.2745 0.2711 0.0000
vt 0.9975 0.2711 0.0000
vt 0.9975 0.9942 0.0000
vt 0.2745 0.9942 0.0000
# 4 texture coords

g P_ShioriSwordB
usemtl wire_138008110
s 1
f 1/1/1 2/2/1 3/3/1 4/4/1 
# 1 polygons

