# 3ds Max Wavefront OBJ Exporter v0.97b - (c)2007 guruware
# File Created: 02.10.2018 14:44:27

mtllib sword.mtl

#
# object P_ShioriSwordA
#

v  0.0000 -196.9234 5.5873
v  0.0000 107.4548 5.5873
v  -10.9518 107.4548 5.5873
v  -9.9080 -196.9234 5.5873
v  -26.4360 107.4548 -0.0000
v  -23.3047 -196.9234 0.0000
v  -10.9518 107.4548 -5.5873
v  -9.9080 -196.9234 -5.5873
v  -30.4729 -215.5865 0.0000
v  -14.0964 -215.5865 5.5874
v  0.0000 -196.9234 -5.5873
v  0.0000 -215.5865 -5.5873
v  -14.0964 -215.5865 -5.5873
v  -17.5885 -273.4228 0.0000
v  -8.1362 -273.4228 2.7937
v  0.0000 -273.4228 -2.7936
v  -8.1362 -273.4228 -2.7936
v  0.0000 107.4548 -5.5873
v  0.0000 -215.5865 5.5874
v  0.0000 -273.4228 2.7937
v  9.9080 -196.9234 5.5873
v  10.9518 107.4548 5.5873
v  26.4360 107.4548 -0.0000
v  23.3047 -196.9234 0.0000
v  9.9080 -196.9234 -5.5873
v  10.9518 107.4548 -5.5873
v  14.0964 -215.5865 5.5874
v  30.4729 -215.5865 0.0000
v  14.0964 -215.5865 -5.5873
v  8.1362 -273.4228 2.7937
v  17.5885 -273.4228 0.0000
v  8.1362 -273.4228 -2.7936
v  0.0000 -312.8696 0.0001
v  9.1419 107.4548 5.5873
v  9.1419 119.4129 5.5873
v  -9.1419 119.4129 5.5873
v  -9.1419 107.4548 5.5873
v  9.1419 119.4129 -5.5874
v  9.1419 107.4548 -5.5874
v  -9.1419 107.4548 -5.5874
v  -9.1419 119.4129 -5.5874
v  -27.4257 119.4129 5.5873
v  -27.4257 107.4548 5.5873
v  -27.4257 107.4548 -5.5874
v  -27.4257 119.4129 -5.5874
v  -5.6787 126.9928 4.5206
v  -5.6787 126.9928 -4.5207
v  -3.3663 235.9779 2.6797
v  -3.3663 235.9779 -2.6799
v  -55.5620 116.8467 2.3083
v  -55.5620 110.0210 2.3083
v  -55.5620 116.8467 -2.3084
v  -55.5620 110.0210 -2.3084
v  -70.8827 118.5287 2.3083
v  -70.8827 108.3389 2.3083
v  -70.8827 118.5287 -2.3084
v  -70.8827 108.3389 -2.3084
v  -84.9359 113.4338 -0.0000
v  -7.9597 246.1354 2.6797
v  -7.9597 246.1354 -2.6799
v  -4.1493 255.3182 2.6797
v  -4.1493 255.3182 -2.6799
v  5.6787 126.9928 -4.5207
v  3.3663 235.9779 -2.6799
v  4.1493 255.3182 -2.6799
v  7.9597 246.1354 -2.6799
v  4.1493 255.3182 2.6797
v  27.4257 119.4129 5.5873
v  27.4257 107.4548 5.5873
v  27.4257 107.4548 -5.5874
v  27.4257 119.4129 -5.5874
v  5.6787 126.9928 4.5206
v  3.3663 235.9779 2.6797
v  55.5620 110.0210 2.3083
v  55.5620 116.8467 2.3083
v  55.5620 116.8467 -2.3084
v  55.5620 110.0210 -2.3084
v  70.8827 108.3389 2.3083
v  70.8827 118.5287 2.3083
v  70.8827 118.5287 -2.3084
v  70.8827 108.3389 -2.3084
v  84.9359 113.4338 -0.0000
v  7.9597 246.1354 2.6797
# 83 vertices

vn 0.0000 0.0000 1.0000
vn -0.2728 -0.0009 0.9621
vn -0.3023 -0.0030 0.9532
vn -0.5259 -0.0019 0.8506
vn -0.5794 -0.0060 0.8150
vn -0.5774 -0.0021 -0.8165
vn -0.5239 -0.0054 -0.8518
vn -0.2739 -0.0027 -0.9618
vn -0.3035 -0.0010 -0.9528
vn -0.5318 0.1618 0.8312
vn 0.0000 -0.0000 -1.0000
vn -0.5318 0.1618 -0.8312
vn -0.4809 -0.1141 0.8693
vn 0.0000 -0.0821 -0.9966
vn -0.4809 -0.1141 -0.8693
vn 0.0000 -0.0821 0.9966
vn 0.3023 -0.0030 0.9532
vn 0.2728 -0.0009 0.9621
vn 0.5259 -0.0019 0.8506
vn 0.5794 -0.0060 0.8150
vn 0.5774 -0.0021 -0.8165
vn 0.3035 -0.0010 -0.9528
vn 0.2739 -0.0027 -0.9618
vn 0.5239 -0.0054 -0.8518
vn 0.5318 0.1618 0.8312
vn -0.0000 -0.0000 -1.0000
vn 0.5318 0.1618 -0.8312
vn 0.4809 -0.1141 0.8693
vn -0.0000 -0.0821 -0.9966
vn 0.4809 -0.1141 -0.8693
vn -0.4412 -0.1967 0.8756
vn 0.0000 -0.1199 -0.9928
vn -0.4412 -0.1967 -0.8756
vn 0.0000 -0.1199 0.9928
vn 0.4412 -0.1967 0.8756
vn 0.4412 -0.1967 -0.8756
vn 0.0000 1.0000 -0.0000
vn -0.9096 0.4156 -0.0000
vn -0.9998 0.0212 -0.0000
vn -0.1949 0.0000 0.9808
vn -0.0908 0.9959 -0.0000
vn -0.1949 -0.0000 -0.9808
vn -0.0908 -0.9959 0.0000
vn 0.1091 0.9940 -0.0000
vn 0.1091 -0.9940 0.0000
vn -0.2696 0.0000 0.9630
vn -0.3408 0.9401 -0.0000
vn -0.2696 -0.0000 -0.9630
vn -0.3408 -0.9401 0.0000
vn -0.9112 -0.4120 -0.0000
vn -0.9236 0.3833 -0.0000
vn 0.0000 0.2333 -0.9724
vn 0.0000 0.0288 -0.9996
vn 0.0000 0.2333 0.9724
vn 0.9096 0.4156 -0.0000
vn 0.0000 0.0288 0.9996
vn 0.9998 0.0212 -0.0000
vn 0.1949 0.0000 0.9808
vn 0.0908 0.9959 -0.0000
vn 0.1949 -0.0000 -0.9808
vn 0.0908 -0.9959 0.0000
vn -0.0000 0.0000 1.0000
vn -0.1091 0.9940 -0.0000
vn -0.1091 -0.9940 0.0000
vn 0.2696 0.0000 0.9630
vn 0.3408 0.9401 -0.0000
vn 0.2696 -0.0000 -0.9630
vn 0.3408 -0.9401 0.0000
vn 0.9112 -0.4120 -0.0000
vn 0.9236 0.3833 -0.0000
vn 0.0000 -1.0000 0.0000
# 71 vertex normals

vt 0.7190 0.0044 0.0000
vt 0.0084 0.0044 0.0000
vt 0.0084 0.0300 0.0000
vt 0.7191 0.0278 0.0000
vt 0.0084 0.0724 0.0000
vt 0.7190 0.0664 0.0000
vt 0.7639 0.0808 0.0000
vt 0.7626 0.0369 0.0000
vt 0.7625 0.0044 0.0000
vt 0.8991 0.0480 0.0000
vt 0.8978 0.0233 0.0000
vt 0.8979 0.0044 0.0000
vt 0.9905 0.0044 0.0000
vt 0.4055 0.0786 0.0000
vt 0.4030 0.1098 0.0000
vt 0.3560 0.1087 0.0000
vt 0.3549 0.0775 0.0000
vt 0.4001 0.1603 0.0000
vt 0.4006 0.1921 0.0000
vt 0.3546 0.1910 0.0000
vt 0.3565 0.1593 0.0000
vt 0.3091 0.1110 0.0000
vt 0.3036 0.0816 0.0000
vt 0.3090 0.1867 0.0000
vt 0.3113 0.1583 0.0000
vt 0.1263 0.0830 0.0000
vt 0.1693 0.0922 0.0000
vt 0.1599 0.1097 0.0000
vt 0.1208 0.1034 0.0000
vt 0.1241 0.3736 0.0000
vt 0.1004 0.3736 0.0000
vt 0.2369 0.1298 0.0000
vt 0.2325 0.1111 0.0000
vt 0.2383 0.1537 0.0000
vt 0.2359 0.1749 0.0000
vt 0.2986 0.2335 0.0000
vt 0.2307 0.1963 0.0000
vt 0.1984 0.1356 0.0000
vt 0.1894 0.1140 0.0000
vt 0.2004 0.1509 0.0000
vt 0.1964 0.1722 0.0000
vt 0.1884 0.1881 0.0000
vt 0.1622 0.1509 0.0000
vt 0.1287 0.4010 0.0000
vt 0.1085 0.4001 0.0000
vt 0.1243 0.4268 0.0000
vt 0.1006 0.4227 0.0000
vt 0.0893 0.1018 0.0000
vt 0.0879 0.0810 0.0000
vt 0.0809 0.3724 0.0000
vt 0.0782 0.4223 0.0000
vt 0.0741 0.3988 0.0000
vt 0.0992 0.4453 0.0000
vt 0.0787 0.4449 0.0000
vt 0.4497 0.1143 0.0000
vt 0.4566 0.0851 0.0000
vt 0.4463 0.1898 0.0000
vt 0.4454 0.1613 0.0000
vt 0.0479 0.1015 0.0000
vt 0.0188 0.1050 0.0000
vt 0.0058 0.0896 0.0000
vt 0.0472 0.0804 0.0000
vt 0.0553 0.3718 0.0000
vt 0.0374 0.3712 0.0000
vt 0.5263 0.1180 0.0000
vt 0.5210 0.1364 0.0000
vt 0.5185 0.1601 0.0000
vt 0.5199 0.1814 0.0000
vt 0.5241 0.2030 0.0000
vt 0.4546 0.2371 0.0000
vt 0.5692 0.1228 0.0000
vt 0.5592 0.1440 0.0000
vt 0.5565 0.1591 0.0000
vt 0.5595 0.1807 0.0000
vt 0.5667 0.1969 0.0000
vt 0.5946 0.1610 0.0000
vt 0.0569 0.3983 0.0000
vt 0.0204 0.3942 0.0000
vt 0.0512 0.4208 0.0000
vt 0.0286 0.4191 0.0000
vt 0.3506 0.2406 0.0000
vt 0.4023 0.2418 0.0000
# 82 texture coords

g P_ShioriSwordA
usemtl wire_138008110
s 2
f 1/1/1 2/2/1 3/3/2 4/4/3 
f 5/5/4 6/6/5 4/4/3 3/3/2 
s 4
f 6/6/6 5/5/7 7/3/8 8/4/9 
s off
f 4/4/10 6/6/10 9/7/10 10/8/10 
f 11/1/11 12/9/11 13/8/11 8/4/11 
f 6/6/12 8/4/12 13/8/12 9/7/12 
f 10/8/13 9/7/13 14/10/13 15/11/13 
f 12/9/14 16/12/14 17/11/14 13/8/14 
f 13/8/15 17/11/15 14/10/15 9/7/15 
s 4
f 8/4/9 7/3/8 18/2/11 11/1/11 
s off
f 1/1/1 4/4/1 10/8/1 19/9/1 
f 19/9/16 10/8/16 15/11/16 20/12/16 
s 2
f 1/1/1 21/4/17 22/3/18 2/2/1 
f 23/5/19 22/3/18 21/4/17 24/6/20 
s 4
f 24/6/21 25/4/22 26/3/23 23/5/24 
s off
f 21/4/25 27/8/25 28/7/25 24/6/25 
f 11/1/26 25/4/26 29/8/26 12/9/26 
f 24/6/27 28/7/27 29/8/27 25/4/27 
f 27/8/28 30/11/28 31/10/28 28/7/28 
f 29/8/29 32/11/29 16/12/29 12/9/29 
f 29/8/30 28/7/30 31/10/30 32/11/30 
s 4
f 25/4/22 11/1/11 18/2/11 26/3/23 
s off
f 1/1/1 19/9/1 27/8/1 21/4/1 
f 27/8/16 19/9/16 20/12/16 30/11/16 
f 14/10/31 33/13/31 15/11/31 
f 16/12/32 33/13/32 17/11/32 
f 17/11/33 33/13/33 14/10/33 
f 15/11/34 33/13/34 20/12/34 
f 30/11/35 33/13/35 31/10/35 
f 32/11/32 33/13/32 16/12/32 
f 31/10/36 33/13/36 32/11/36 
f 20/12/34 33/13/34 30/11/34 
s 2
f 34/14/1 35/15/1 36/16/1 37/17/1 
s 4
f 38/18/11 39/19/11 40/20/11 41/21/11 
s 2
f 42/22/1 43/23/1 37/17/1 36/16/1 
s 4
f 44/24/11 45/25/11 41/21/11 40/20/11 
s 8
f 45/25/37 42/22/37 36/16/37 41/21/37 
s off
f 41/26/38 36/27/38 46/28/38 47/29/38 
f 47/29/39 46/28/39 48/30/39 49/31/39 
f 43/23/40 42/22/40 50/32/40 51/33/40 
f 42/22/41 45/25/41 52/34/41 50/32/41 
f 45/25/42 44/24/42 53/35/42 52/34/42 
f 44/24/43 43/36/43 51/37/43 53/35/43 
f 51/33/1 50/32/1 54/38/1 55/39/1 
f 50/32/44 52/34/44 56/40/44 54/38/44 
f 52/34/11 53/35/11 57/41/11 56/40/11 
f 53/35/45 51/37/45 55/42/45 57/41/45 
f 55/39/46 54/38/46 58/43/46 
f 54/38/47 56/40/47 58/43/47 
f 56/40/48 57/41/48 58/43/48 
f 57/41/49 55/42/49 58/43/49 
f 49/31/50 48/30/50 59/44/50 60/45/50 
f 60/45/51 59/44/51 61/46/51 62/47/51 
f 47/29/52 63/48/52 38/49/52 41/26/52 
f 49/31/53 64/50/53 63/48/53 47/29/53 
f 62/47/11 65/51/11 66/52/11 60/45/11 
f 61/53/37 67/54/37 65/51/37 62/47/37 
s 2
f 68/55/1 35/15/1 34/14/1 69/56/1 
s 4
f 70/57/11 39/19/11 38/18/11 71/58/11 
s 8
f 71/58/37 38/18/37 35/15/37 68/55/37 
s off
f 72/59/54 46/60/54 36/61/54 35/62/54 
f 38/49/55 63/48/55 72/59/55 35/62/55 
f 73/63/56 48/64/56 46/60/56 72/59/56 
f 63/48/57 64/50/57 73/63/57 72/59/57 
f 69/56/58 74/65/58 75/66/58 68/55/58 
f 68/55/59 75/66/59 76/67/59 71/58/59 
f 71/58/60 76/67/60 77/68/60 70/57/60 
f 70/57/61 77/68/61 74/69/61 69/70/61 
f 74/65/62 78/71/62 79/72/62 75/66/62 
f 75/66/63 79/72/63 80/73/63 76/67/63 
f 76/67/11 80/73/11 81/74/11 77/68/11 
f 77/68/64 81/74/64 78/75/64 74/69/64 
f 78/71/65 82/76/65 79/72/65 
f 79/72/66 82/76/66 80/73/66 
f 80/73/67 82/76/67 81/74/67 
f 81/74/68 82/76/68 78/75/68 
f 73/63/1 83/77/1 59/78/1 48/64/1 
f 64/50/69 66/52/69 83/77/69 73/63/69 
f 67/79/1 61/80/1 59/78/1 83/77/1 
f 66/52/70 65/51/70 67/79/70 83/77/70 
f 49/31/11 60/45/11 66/52/11 64/50/11 
f 44/24/71 40/20/71 37/81/71 43/36/71 
f 39/19/71 34/82/71 37/81/71 40/20/71 
f 70/57/71 69/70/71 34/82/71 39/19/71 
# 68 polygons - 16 triangles

