# 3ds Max Wavefront OBJ Exporter v0.97b - (c)2007 guruware
# File Created: 04.10.2018 08:38:59

mtllib axe.mtl

#
# object P_ShioriAxe
#

v  -2.3984 41.9595 -0.0000
v  -1.1992 41.9595 2.0771
v  -1.1992 51.9305 2.0771
v  -2.3984 51.9305 -0.0000
v  1.1992 41.9595 2.0771
v  1.1992 51.9305 2.0771
v  2.3984 41.9595 -0.0000
v  2.3984 51.9305 -0.0000
v  1.1992 41.9595 -2.0771
v  1.1992 51.9305 -2.0771
v  -1.1992 41.9595 -2.0771
v  -1.1992 51.9305 -2.0771
v  1.1992 41.0126 -7.4625
v  1.1992 52.4610 -5.4706
v  -1.1992 41.0126 -7.4625
v  -1.1992 52.4610 -5.4706
v  1.1992 41.7512 -16.4422
v  1.1992 52.1263 -16.1702
v  -1.1992 52.1263 -16.1702
v  -1.1992 41.7512 -16.4422
v  1.1992 55.0984 -13.6581
v  1.1992 54.7506 -7.7031
v  -1.1992 55.0984 -13.6581
v  0.0000 55.9765 -15.3377
v  0.0000 51.9305 -18.4072
v  -1.1992 54.7506 -7.7031
v  0.0000 60.0225 -9.4526
v  -1.1992 58.2186 -9.0677
v  1.1992 58.2186 -9.0677
v  1.1992 36.8812 -15.8699
v  0.0000 36.5234 -17.6449
v  0.0000 41.9595 -18.4072
v  -1.1992 36.8812 -15.8699
v  -1.1992 38.1500 -9.0780
v  1.1992 38.1500 -9.0780
v  1.1992 29.6139 -13.3504
v  0.0000 28.1047 -14.5681
v  -1.1992 29.6139 -13.3504
v  -1.1992 34.9650 -9.0329
v  1.1992 34.9650 -9.0329
v  1.1992 21.5770 -6.9358
v  0.0000 18.3784 -6.9358
v  -1.1992 21.5770 -6.9358
v  -1.1992 32.9173 -6.9358
v  1.1992 32.9173 -6.9358
v  -1.7601 41.4758 -0.0000
v  -0.8801 41.4758 1.5243
v  -0.8801 52.4141 1.5243
v  -1.7601 52.4141 -0.0000
v  0.8801 41.4758 1.5243
v  0.8801 52.4141 1.5243
v  1.7601 41.4758 -0.0000
v  1.7601 52.4141 -0.0000
v  0.8801 41.4758 -1.5243
v  0.8801 52.4141 -1.5243
v  -0.8801 41.4758 -1.5243
v  -0.8801 52.4141 -1.5243
v  -0.8801 54.9743 1.5243
v  -1.7601 54.9743 -0.0000
v  0.8801 54.9743 1.5243
v  1.7601 54.9743 -0.0000
v  0.8801 54.9743 -1.5243
v  -0.8801 54.9743 -1.5243
v  -1.2711 57.1608 2.2016
v  -2.5422 57.1608 -0.0000
v  1.2711 57.1608 2.2016
v  2.5422 57.1608 -0.0000
v  1.2711 57.1608 -2.2016
v  -1.2711 57.1608 -2.2016
v  0.0000 62.1887 -0.0000
v  -1.7601 -12.8184 0.0000
v  -0.8801 -12.8184 1.5243
v  0.8801 -12.8184 1.5243
v  1.7601 -12.8184 0.0000
v  0.8801 -12.8184 -1.5243
v  -0.8801 -12.8184 -1.5243
v  1.7601 -17.4183 0.0000
v  0.8801 -17.4183 1.5243
v  1.2711 -19.6049 2.2016
v  2.5422 -19.6049 0.0000
v  -0.8801 -17.4183 1.5243
v  -1.2711 -19.6049 2.2016
v  -1.7601 -17.4183 0.0000
v  -2.5422 -19.6049 0.0000
v  -0.8801 -17.4183 -1.5243
v  -1.2711 -19.6049 -2.2016
v  0.8801 -17.4183 -1.5243
v  1.2711 -19.6049 -2.2016
v  0.0000 -24.6327 0.0000
v  -1.1951 -16.4575 -2.0700
v  1.1951 -16.4575 -2.0700
v  2.3902 -16.4575 0.0000
v  1.1951 -16.4575 2.0700
v  -1.1951 -16.4575 2.0700
v  -2.3902 -16.4575 0.0000
# 95 vertices

vn -1.0000 -0.0000 -0.0000
vn -0.5828 0.0000 0.8126
vn -1.0000 0.0000 -0.0000
vn 0.5828 0.0000 0.8126
vn 1.0000 0.0000 -0.0000
vn 1.0000 0.0000 0.0000
vn 0.9472 -0.0000 -0.3208
vn -0.9472 -0.0000 -0.3208
vn 1.0000 -0.0000 0.0000
vn 0.0000 -0.9947 0.1026
vn 0.0000 0.9958 0.0913
vn -0.8830 0.3777 -0.2786
vn 0.0000 0.8569 0.5155
vn 0.0000 0.3418 0.9398
vn 0.8456 0.4954 -0.1988
vn 0.9338 -0.0771 -0.3495
vn 0.0000 -0.6933 0.7207
vn 0.9119 -0.2133 -0.3507
vn 0.0000 0.0241 0.9997
vn 0.9022 -0.3464 -0.2569
vn 0.0000 0.8677 0.4970
vn 0.9482 0.0072 -0.3175
vn -0.9482 0.0072 -0.3175
vn 0.8830 0.3777 -0.2786
vn 0.0000 0.5571 0.8305
vn -0.8456 0.4954 -0.1988
vn -0.9338 -0.0771 -0.3495
vn -0.9119 -0.2133 -0.3507
vn -0.9022 -0.3464 -0.2569
vn 0.0000 0.0000 1.0000
vn -0.5917 -0.7808 0.2004
vn -0.5917 0.7808 0.2004
vn 0.0000 -0.8896 0.4567
vn 0.0000 0.8896 0.4567
vn 0.5917 -0.7808 0.2004
vn 0.5917 0.7808 0.2004
vn 0.5917 -0.7808 -0.2004
vn 0.5917 0.7808 -0.2004
vn 0.0000 -0.8896 -0.4567
vn 0.0000 0.8896 -0.4567
vn -0.5917 -0.7808 -0.2004
vn -0.5917 0.7808 -0.2004
vn -0.9472 0.0000 0.3208
vn 0.9472 0.0000 0.3208
vn 0.0000 -0.0000 -1.0000
vn -0.8971 -0.3209 0.3038
vn -0.0000 -0.4669 0.8843
vn 0.8971 -0.3209 0.3038
vn 0.8971 -0.3209 -0.3038
vn 0.0000 -0.4669 -0.8843
vn -0.8971 -0.3209 -0.3038
vn -0.8542 0.4319 0.2893
vn -0.0000 0.5982 0.8014
vn 0.8542 0.4319 0.2893
vn 0.8542 0.4319 -0.2893
vn 0.0000 0.5982 -0.8014
vn -0.8542 0.4319 -0.2893
vn 0.8971 0.3209 0.3038
vn -0.0000 0.4669 0.8843
vn -0.8971 0.3209 0.3038
vn -0.8971 0.3209 -0.3038
vn -0.0000 0.4669 -0.8843
vn 0.8971 0.3209 -0.3038
vn 0.8542 -0.4319 0.2893
vn 0.0000 -0.5982 0.8014
vn -0.8542 -0.4319 0.2893
vn -0.8542 -0.4319 -0.2893
vn 0.0000 -0.5982 -0.8014
vn 0.8542 -0.4319 -0.2893
vn 0.0000 -0.6955 -0.7185
vn 0.8046 -0.5276 -0.2725
vn 0.8046 -0.5276 0.2725
vn -0.0000 -0.6955 0.7185
vn 0.0000 -0.6955 0.7185
vn -0.8046 -0.5276 0.2725
vn -0.8046 -0.5276 -0.2725
vn -0.9347 0.1618 0.3166
vn 0.0000 0.2477 0.9688
vn 0.9347 0.1618 0.3166
vn 0.9347 0.1618 -0.3166
vn 0.0000 0.2477 -0.9688
vn -0.9347 0.1618 -0.3166
# 82 vertex normals

vt 0.1810 0.8093 0.0000
vt 0.2000 0.8087 0.0000
vt 0.2015 0.8974 0.0000
vt 0.1820 0.8984 0.0000
vt 0.2189 0.8085 0.0000
vt 0.2208 0.8972 0.0000
vt 0.2380 0.8086 0.0000
vt 0.2402 0.8976 0.0000
vt 0.2584 0.8078 0.0000
vt 0.2606 0.8987 0.0000
vt 0.1617 0.8095 0.0000
vt 0.1622 0.9004 0.0000
vt 0.8329 0.2494 0.0000
vt 0.8046 0.1977 0.0000
vt 0.9291 0.1874 0.0000
vt 0.9282 0.2240 0.0000
vt 0.7891 0.2163 0.0000
vt 0.8137 0.2620 0.0000
vt 0.9507 0.2276 0.0000
vt 0.9535 0.1951 0.0000
vt 0.7927 0.1042 0.0000
vt 0.8958 0.0812 0.0000
vt 0.9313 0.0967 0.0000
vt 0.9477 0.1564 0.0000
vt 0.9370 0.0740 0.0000
vt 0.8884 0.0558 0.0000
vt 0.9680 0.1709 0.0000
vt 0.9958 0.1195 0.0000
vt 0.9761 0.1296 0.0000
vt 0.9947 0.1440 0.0000
vt 0.7448 0.1175 0.0000
vt 0.7374 0.0961 0.0000
vt 0.7898 0.0803 0.0000
vt 0.7669 0.1851 0.0000
vt 0.7647 0.2086 0.0000
vt 0.6720 0.1480 0.0000
vt 0.6535 0.1335 0.0000
vt 0.7306 0.1900 0.0000
vt 0.7383 0.2146 0.0000
vt 0.5922 0.2168 0.0000
vt 0.5579 0.2195 0.0000
vt 0.7064 0.2080 0.0000
vt 0.7117 0.2299 0.0000
vt 0.5908 0.2404 0.0000
vt 0.1814 0.8025 0.0000
vt 0.1999 0.8024 0.0000
vt 0.2018 0.9031 0.0000
vt 0.1828 0.9048 0.0000
vt 0.2186 0.8022 0.0000
vt 0.2208 0.9031 0.0000
vt 0.2369 0.8019 0.0000
vt 0.2393 0.9044 0.0000
vt 0.2538 0.8013 0.0000
vt 0.2562 0.9063 0.0000
vt 0.1424 0.8059 0.0000
vt 0.1467 0.8007 0.0000
vt 0.1633 0.8022 0.0000
vt 0.1437 0.9091 0.0000
vt 0.1647 0.9083 0.0000
vt 0.1488 0.9137 0.0000
vt 0.2031 0.9244 0.0000
vt 0.1857 0.9269 0.0000
vt 0.2208 0.9250 0.0000
vt 0.2380 0.9279 0.0000
vt 0.2543 0.9308 0.0000
vt 0.1692 0.9319 0.0000
vt 0.1536 0.9370 0.0000
vt 0.2042 0.9424 0.0000
vt 0.1889 0.9453 0.0000
vt 0.2199 0.9434 0.0000
vt 0.2358 0.9481 0.0000
vt 0.2531 0.9567 0.0000
vt 0.1738 0.9519 0.0000
vt 0.1577 0.9626 0.0000
vt 0.2074 0.9907 0.0000
vt 0.1844 0.3162 0.0000
vt 0.2025 0.3165 0.0000
vt 0.2206 0.3161 0.0000
vt 0.2381 0.3152 0.0000
vt 0.2544 0.3152 0.0000
vt 0.1505 0.3151 0.0000
vt 0.1669 0.3152 0.0000
vt 0.2389 0.2715 0.0000
vt 0.2209 0.2754 0.0000
vt 0.2186 0.2572 0.0000
vt 0.2344 0.2514 0.0000
vt 0.2025 0.2769 0.0000
vt 0.2025 0.2592 0.0000
vt 0.1841 0.2754 0.0000
vt 0.1865 0.2572 0.0000
vt 0.1661 0.2715 0.0000
vt 0.1706 0.2514 0.0000
vt 0.1497 0.2673 0.0000
vt 0.1539 0.2413 0.0000
vt 0.2553 0.2673 0.0000
vt 0.2511 0.2414 0.0000
vt 0.2025 0.2109 0.0000
vt 0.1650 0.2818 0.0000
vt 0.1450 0.2803 0.0000
vt 0.2601 0.2804 0.0000
vt 0.2400 0.2819 0.0000
vt 0.2213 0.2839 0.0000
vt 0.2025 0.2849 0.0000
vt 0.1837 0.2840 0.0000
# 104 texture coords

g P_ShioriAxe
usemtl wire_138008110
s 8
f 1/1/1 2/2/2 3/3/2 4/4/3 
f 2/2/2 5/5/4 6/6/4 3/3/2 
f 5/5/4 7/7/5 8/8/6 6/6/4 
f 7/7/5 9/9/7 10/10/7 8/8/6 
f 11/11/8 1/1/1 4/4/3 12/12/8 
s off
f 9/13/9 13/14/9 14/15/9 10/16/9 
f 11/13/10 15/14/10 13/17/10 9/18/10 
f 12/16/3 16/15/3 15/14/3 11/13/3 
f 10/19/11 14/20/11 16/15/11 12/16/11 
f 13/14/9 17/21/9 18/22/9 14/15/9 
f 19/22/3 20/21/3 15/14/3 16/15/3 
f 14/15/6 18/22/6 21/23/6 22/24/6 
f 19/22/12 23/23/12 24/25/12 25/26/12 
f 14/20/13 22/27/13 26/24/13 16/15/13 
f 27/28/14 28/29/14 29/30/14 
f 24/25/15 27/28/15 29/29/15 21/23/15 
f 26/24/3 28/29/3 23/23/3 
f 17/21/16 30/31/16 31/32/16 32/33/16 
f 20/21/1 33/31/1 34/34/1 15/14/1 
f 15/14/17 34/34/17 35/35/17 13/17/17 
f 31/32/18 30/31/18 36/36/18 37/37/18 
f 33/31/1 38/36/1 39/38/1 34/34/1 
f 34/34/19 39/38/19 40/39/19 35/35/19 
f 37/37/20 36/36/20 41/40/20 42/41/20 
f 38/36/3 43/40/3 44/42/3 39/38/3 
f 39/38/21 44/42/21 45/43/21 40/39/21 
f 17/21/22 32/33/22 25/26/22 18/22/22 
f 25/26/23 32/33/23 20/21/23 19/22/23 
f 18/22/24 25/26/24 24/25/24 21/23/24 
f 16/15/1 26/24/1 23/23/1 19/22/1 
f 26/24/25 22/27/25 29/30/25 28/29/25 
f 29/29/9 22/24/9 21/23/9 
f 24/25/26 23/23/26 28/29/26 27/28/26 
f 17/21/9 13/14/9 35/34/9 30/31/9 
f 20/21/27 32/33/27 31/32/27 33/31/27 
f 30/31/6 35/34/6 40/38/6 36/36/6 
f 31/32/28 37/37/28 38/36/28 33/31/28 
f 36/36/9 40/38/9 45/42/9 41/40/9 
f 37/37/29 42/41/29 43/40/29 38/36/29 
f 41/44/30 45/43/30 44/42/30 43/40/30 
f 41/44/30 43/40/30 42/41/30 
f 2/2/31 1/1/31 46/45/31 47/46/31 
f 4/4/32 3/3/32 48/47/32 49/48/32 
f 5/5/33 2/2/33 47/46/33 50/49/33 
f 3/3/34 6/6/34 51/50/34 48/47/34 
f 7/7/35 5/5/35 50/49/35 52/51/35 
f 6/6/36 8/8/36 53/52/36 51/50/36 
f 9/9/37 7/7/37 52/51/37 54/53/37 
f 8/8/38 10/10/38 55/54/38 53/52/38 
f 11/11/39 9/55/39 54/56/39 56/57/39 
f 10/58/40 12/12/40 57/59/40 55/60/40 
f 1/1/41 11/11/41 56/57/41 46/45/41 
f 12/12/42 4/4/42 49/48/42 57/59/42 
f 49/48/43 48/47/43 58/61/43 59/62/43 
f 48/47/30 51/50/30 60/63/30 58/61/30 
f 51/50/44 53/52/44 61/64/44 60/63/44 
f 53/52/7 55/54/7 62/65/7 61/64/7 
f 55/60/45 57/59/45 63/66/45 62/67/45 
f 57/59/8 49/48/8 59/62/8 63/66/8 
f 59/62/46 58/61/46 64/68/46 65/69/46 
f 58/61/47 60/63/47 66/70/47 64/68/47 
f 60/63/48 61/64/48 67/71/48 66/70/48 
f 61/64/49 62/65/49 68/72/49 67/71/49 
f 62/67/50 63/66/50 69/73/50 68/74/50 
f 63/66/51 59/62/51 65/69/51 69/73/51 
f 65/69/52 64/68/52 70/75/52 
f 64/68/53 66/70/53 70/75/53 
f 66/70/54 67/71/54 70/75/54 
f 67/71/55 68/72/55 70/75/55 
f 68/74/56 69/73/56 70/75/56 
f 69/73/57 65/69/57 70/75/57 
f 46/45/43 71/76/43 72/77/43 47/46/43 
f 47/46/30 72/77/30 73/78/30 50/49/30 
f 50/49/44 73/78/44 74/79/44 52/51/44 
f 52/51/7 74/79/7 75/80/7 54/53/7 
f 54/56/45 75/81/45 76/82/45 56/57/45 
f 56/57/8 76/82/8 71/76/8 46/45/8 
f 77/83/58 78/84/58 79/85/58 80/86/58 
f 78/84/59 81/87/59 82/88/59 79/85/59 
f 81/87/60 83/89/60 84/90/60 82/88/60 
f 83/89/61 85/91/61 86/92/61 84/90/61 
f 85/91/62 87/93/62 88/94/62 86/92/62 
f 87/95/63 77/83/63 80/86/63 88/96/63 
f 80/86/64 79/85/64 89/97/64 
f 79/85/65 82/88/65 89/97/65 
f 82/88/66 84/90/66 89/97/66 
f 84/90/67 86/92/67 89/97/67 
f 86/92/68 88/94/68 89/97/68 
f 88/96/69 80/86/69 89/97/69 
s 1
f 90/98/70 91/99/70 87/93/70 85/91/70 
s 2
f 91/100/71 92/101/71 77/83/71 87/95/71 
s 1
f 92/101/72 93/102/72 78/84/72 77/83/72 
s 2
f 93/102/73 94/103/74 81/87/74 78/84/73 
s 1
f 94/103/75 95/104/75 83/89/75 81/87/75 
s 2
f 95/104/76 90/98/76 85/91/76 83/89/76 
s off
f 95/104/77 94/103/77 72/77/77 71/76/77 
f 94/103/78 93/102/78 73/78/78 72/77/78 
f 93/102/79 92/101/79 74/79/79 73/78/79 
f 92/101/80 91/100/80 75/80/80 74/79/80 
f 91/99/81 90/98/81 76/82/81 75/81/81 
f 90/98/82 95/104/82 71/76/82 76/82/82 
# 85 polygons - 16 triangles

